<?xml version="1.0" standalone="no"?>
<!DOCTYPE svg PUBLIC "-//W3C//DTD SVG 1.1//EN" "http://www.w3.org/Graphics/SVG/1.1/DTD/svg11.dtd" >
<svg xmlns="http://www.w3.org/2000/svg" xmlns:xlink="http://www.w3.org/1999/xlink" version="1.1">
<metadata>
Created by FontForge 20170731 at Mon Apr 30 16:30:51 2007
 By Aleksey,,,
Copyright 1990 as an unpublished work by Bitstream Inc.  All rights reserved.  Confidential.
</metadata>
<defs>
<font id="AvantGardeITCbyBT-Book" horiz-adv-x="500" >
  <font-face 
    font-family="ITC Avant Garde Gothic Book"
    font-weight="500"
    font-stretch="normal"
    units-per-em="1000"
    panose-1="0 0 0 0 0 0 0 0 0 0"
    ascent="800"
    descent="-200"
    x-height="537"
    cap-height="711"
    bbox="-167 -236 1272 963"
    underline-thickness="55"
    underline-position="-168"
    unicode-range="U+0020-FB02"
  />
<missing-glyph horiz-adv-x="282" 
 />
    <glyph glyph-name=".notdef" horiz-adv-x="282" 
 />
    <glyph glyph-name=".null" horiz-adv-x="0" 
 />
    <glyph glyph-name="nonmarkingreturn" horiz-adv-x="333" 
 />
    <glyph glyph-name="space" unicode=" " horiz-adv-x="282" 
 />
    <glyph glyph-name="exclam" unicode="!" horiz-adv-x="287" 
d="M178 0h-69v130h69v-130zM178 185h-69v526h69v-526z" />
    <glyph glyph-name="quotedbl" unicode="&#x22;" horiz-adv-x="278" 
d="M97 700v-270h-49v270h49zM231 700v-270h-50v270h50z" />
    <glyph glyph-name="numbersign" unicode="#" horiz-adv-x="769" 
d="M448 710l-82 -236h129l84 236h62l-83 -236h154l-18 -52h-155l-48 -136h166l-18 -52h-166l-83 -234h-63l84 234h-131l-84 -234h-62l83 234h-160l19 52h159l49 136h-172l17 52h173l84 236h62zM476 422h-130l-47 -136h130z" />
    <glyph glyph-name="dollar" unicode="$" horiz-adv-x="565" 
d="M74 211h68v-8q0 -68 35.5 -104t103.5 -36q65 0 102.5 35.5t37.5 95.5q0 28 -8 49t-17.5 34t-33 25.5t-40 18.5t-52.5 18q-3 1 -5 1.5t-5 1.5t-5 2q-86 28 -124.5 66t-38.5 111q0 71 43.5 123t112.5 61v104h70v-104q72 -8 113 -54.5t45 -123.5h-70v2q0 53 -32.5 85.5
t-86.5 32.5q-59 0 -92.5 -33.5t-33.5 -88.5q0 -22 7.5 -39.5t15.5 -28.5t30 -22.5t34 -16.5t46.5 -17t49.5 -17q78 -29 113 -69.5t35 -109.5q0 -84 -48 -140t-126 -63v-120h-70v120q-78 8 -126 66t-48 143z" />
    <glyph glyph-name="percent" unicode="%" horiz-adv-x="877" 
d="M482 161q0 73 51 124t124 51t124 -51t51 -124t-51 -124t-124 -51t-124 51t-51 124zM544 161q0 -46 32.5 -78.5t78.5 -32.5t78.5 32.5t32.5 78.5t-32.5 78t-78.5 32t-78.5 -32t-32.5 -78zM600 725h57l-380 -739h-57zM44 550q0 73 51 124t124 51t124.5 -51t51.5 -124
t-51 -124t-125 -51q-73 0 -124 50.5t-51 124.5zM107 549q0 -46 32.5 -78.5t78.5 -32.5t78 32.5t32 78.5t-32 78t-78 32t-78.5 -32t-32.5 -78z" />
    <glyph glyph-name="ampersand" unicode="&#x26;" horiz-adv-x="694" 
d="M485 135q-33 -73 -89 -111t-126 -38q-85 0 -146 62t-61 152q0 63 36 118.5t99 84.5q-45 40 -63.5 73.5t-18.5 80.5q0 68 49.5 117.5t124.5 49.5q67 0 115.5 -50t48.5 -117q0 -112 -136 -172l144 -133l84 221h76l-107 -271l159 -146l-44 -52zM434 181l-189 176
q-108 -53 -108 -157q0 -65 39 -104.5t98 -39.5q90 0 160 125zM271 431q110 43 110 129q0 42 -27.5 70.5t-66.5 28.5q-42 0 -70 -27.5t-28 -75.5q0 -35 19.5 -63t62.5 -62z" />
    <glyph glyph-name="quotesingle" unicode="'" horiz-adv-x="144" 
d="M97 700v-270h-49v270h49z" />
    <glyph glyph-name="parenleft" unicode="(" horiz-adv-x="264" 
d="M211 725v-79q-50 -40 -65.5 -92t-15.5 -139v-321q0 -87 15.5 -139t65.5 -92v-79q-150 80 -150 298v345q0 218 150 298z" />
    <glyph glyph-name="parenright" unicode=")" horiz-adv-x="264" 
d="M53 725q150 -80 150 -298v-345q0 -218 -150 -298v79q50 40 65.5 92t15.5 139v321q0 87 -15.5 139t-65.5 92v79z" />
    <glyph glyph-name="asterisk" unicode="*" 
d="M249 479l-89 -129l-52 36l98 123l-145 42l18 58l142 -47v149h56v-149l141 47l20 -58l-147 -42l100 -123l-51 -36z" />
    <glyph glyph-name="plus" unicode="+" horiz-adv-x="833" 
d="M441 596v-274h268v-48h-268v-274h-48v274h-269v48h269v274h48z" />
    <glyph glyph-name="comma" unicode="," horiz-adv-x="282" 
d="M121 -79h-70l76 209h70z" />
    <glyph glyph-name="hyphen" unicode="-" horiz-adv-x="322" 
d="M275 301v-65h-229v65h229z" />
    <glyph glyph-name="period" unicode="." horiz-adv-x="282" 
d="M176 0h-70v130h70v-130z" />
    <glyph glyph-name="slash" unicode="/" horiz-adv-x="278" 
d="M35 -93h-59l243 804h59z" />
    <glyph glyph-name="zero" unicode="0" horiz-adv-x="565" 
d="M42 250v211q0 58 7.5 95t34.5 74q72 96 198 96q109 0 175 -68t66 -193v-218q0 -107 -39 -162q-71 -99 -202 -99q-124 0 -199 96q-41 53 -41 168zM111 235q0 -91 46.5 -139t124.5 -48q79 0 125 48t46 137v245q0 89 -46.5 137t-124.5 48t-124.5 -48.5t-46.5 -139.5v-240z
" />
    <glyph glyph-name="one" unicode="1" horiz-adv-x="565" 
d="M330 0h-74v650h-124v61h198v-711z" />
    <glyph glyph-name="two" unicode="2" horiz-adv-x="565" 
d="M506 0h-441v69l252 239q65 62 94 104t29 93q0 66 -43 111.5t-112 45.5t-110.5 -46t-41.5 -123q0 -4 0.5 -10.5t0.5 -9.5h-69v11q0 108 63.5 175t162.5 67q89 0 153 -64.5t64 -161.5q0 -106 -111 -210l-240 -221h349v-69z" />
    <glyph glyph-name="three" unicode="3" horiz-adv-x="565" 
d="M124 216v-6q0 -71 44 -117t108 -46q69 0 114.5 45.5t45.5 118.5q0 81 -47.5 123.5t-140.5 42.5q-22 0 -33 -1v59q11 -1 31 -1q141 0 141 116q0 50 -30.5 82t-75.5 32q-52 0 -82 -31.5t-31 -88.5h-65q4 84 53 132.5t128 48.5q74 0 124.5 -52.5t50.5 -122.5q0 -82 -69 -132
q117 -62 117 -200q0 -97 -64 -164.5t-163 -67.5q-104 0 -165 61t-62 169h71z" />
    <glyph glyph-name="four" unicode="4" horiz-adv-x="565" 
d="M445 0h-69v137h-333v62l322 512h80v-512h77v-62h-77v-137zM378 199l3 430l-265 -430h262z" />
    <glyph glyph-name="five" unicode="5" horiz-adv-x="565" 
d="M41 216h71q4 -71 54.5 -118.5t116.5 -47.5q72 0 121.5 53.5t49.5 133.5t-49.5 129.5t-129.5 49.5q-91 0 -147 -82l-54 25l63 352h321v-70h-261l-36 -198q59 42 126 42q105 0 171 -71t66 -179q0 -104 -71 -176.5t-172 -72.5q-95 0 -163.5 64t-76.5 166z" />
    <glyph glyph-name="six" unicode="6" horiz-adv-x="565" 
d="M303 711h87l-166 -257q46 11 77 11q97 0 160 -67.5t63 -169.5q0 -104 -68.5 -173t-174.5 -69q-105 0 -172.5 68.5t-67.5 165.5q0 15 1.5 29.5t5.5 29.5t7 26t11.5 27.5t12 24.5t14.5 26.5t14.5 24.5t17.5 27t17 26zM286 403q-74 0 -123 -51t-49 -125q0 -76 51 -127.5
t122 -51.5q68 0 116 49.5t48 128.5q0 78 -47 127.5t-118 49.5z" />
    <glyph glyph-name="seven" unicode="7" horiz-adv-x="565" 
d="M208 0h-78l281 641h-311v70h392v-64z" />
    <glyph glyph-name="eight" unicode="8" horiz-adv-x="565" 
d="M163 397q-76 50 -76 140q0 75 56 131.5t138 56.5q85 0 141 -55t56 -128q0 -95 -79 -145q111 -62 111 -180q0 -100 -64 -165.5t-168 -65.5q-94 0 -158.5 66t-64.5 160q0 61 25.5 104.5t82.5 80.5zM126 204q0 -69 45 -113t107 -44q70 0 115 46t45 114q0 71 -42.5 114.5
t-112.5 43.5q-71 0 -114 -42.5t-43 -118.5zM157 548q0 -53 34 -86t87 -33q64 0 98 30.5t34 86.5q0 51 -35.5 83.5t-90.5 32.5q-54 0 -90.5 -32.5t-36.5 -81.5z" />
    <glyph glyph-name="nine" unicode="9" horiz-adv-x="565" 
d="M262 0h-87l166 258q-46 -11 -77 -11q-97 0 -160 67.5t-63 169.5q0 104 68 173t174 69t173.5 -68.5t67.5 -165.5q0 -15 -1.5 -29.5t-5.5 -29.5t-7 -26t-11.5 -27.5t-12 -24.5t-14.5 -26.5t-14.5 -24.5t-17.5 -27t-17 -26zM279 309q74 0 123 51t49 125q0 76 -51 127
t-122 51q-68 0 -116 -49t-48 -128q0 -78 47 -127.5t118 -49.5z" />
    <glyph glyph-name="colon" unicode=":" horiz-adv-x="287" 
d="M178 0h-69v130h69v-130zM178 407h-69v130h69v-130z" />
    <glyph glyph-name="semicolon" unicode=";" horiz-adv-x="287" 
d="M178 537v-130h-69v130h69zM121 -79h-70l76 209h70z" />
    <glyph glyph-name="less" unicode="&#x3c;" horiz-adv-x="833" 
d="M704 501l-499 -203l499 -202v-53l-575 235v40l575 236v-53z" />
    <glyph glyph-name="equal" unicode="=" horiz-adv-x="833" 
d="M709 413v-48h-585v48h585zM709 231v-48h-585v48h585z" />
    <glyph glyph-name="greater" unicode="&#x3e;" horiz-adv-x="833" 
d="M704 318v-40l-575 -235v53l499 202l-499 203v53z" />
    <glyph glyph-name="question" unicode="?" horiz-adv-x="463" 
d="M197 0v130h70v-130h-70zM267 194h-70q0 92 75 173q8 8 30.5 30t31 32.5t17.5 34t9 52.5q0 64 -35 100t-94 36q-63 0 -98.5 -40.5t-38.5 -117.5h-72q1 106 60 168.5t153 62.5q89 0 144 -58.5t55 -151.5q0 -18 -2.5 -35t-5 -28.5t-10.5 -25t-11 -20t-15 -19t-15 -15.5
t-17.5 -16t-16.5 -15q-38 -35 -55.5 -68t-18.5 -79z" />
    <glyph glyph-name="at" unicode="@" horiz-adv-x="1000" 
d="M591 229l30 121q-9 46 -37 71.5t-68 25.5q-76 0 -124.5 -66t-48.5 -164q0 -55 27 -85t74 -30q52 0 92.5 34.5t54.5 92.5zM634 408l29 61h46l-68 -274q-8 -35 -8 -45q0 -21 13.5 -33t38.5 -12q53 0 103 40q47 37 73.5 99.5t26.5 138.5q0 122 -96 202.5t-249 80.5
q-171 0 -284 -97q-145 -124 -145 -319q0 -166 119 -262q104 -85 266 -85q172 0 310 94l19 -27q-144 -108 -319 -108q-187 0 -304 90q-148 113 -148 310q0 204 165 340q131 108 322 108q165 0 272 -82q127 -98 127 -248q0 -171 -119 -265q-69 -54 -151 -54q-94 0 -94 74
q0 2 0.5 6.5t0.5 7.5q-51 -88 -144 -88q-75 0 -114 41t-39 119q0 113 66.5 190t160.5 77q92 0 124 -80z" />
    <glyph glyph-name="A" unicode="A" horiz-adv-x="597" 
d="M426 287l-135 357l-133 -357h268zM49 0h-74l276 711h84l275 -711h-75l-85 223h-316z" />
    <glyph glyph-name="B" unicode="B" horiz-adv-x="509" 
d="M66 711h132q119 0 176.5 -44.5t57.5 -143.5q0 -97 -76 -140q115 -48 115 -173q0 -111 -61 -160.5t-187 -49.5h-157v711zM133 643v-239h42q95 0 140.5 25.5t45.5 96.5q0 62 -41.5 89.5t-126.5 27.5h-60zM133 336v-268h98q85 0 127 32.5t42 100.5q0 135 -169 135h-98z" />
    <glyph glyph-name="C" unicode="C" horiz-adv-x="752" 
d="M633 527q-94 129 -242 129q-119 0 -203 -88.5t-84 -208.5q0 -130 84.5 -218t202.5 -88q149 0 237 123h83q-49 -91 -131 -140.5t-184 -49.5q-158 0 -262 107t-104 267q0 153 111 262q103 103 251 103q106 0 191 -51.5t134 -146.5h-84z" />
    <glyph glyph-name="D" unicode="D" horiz-adv-x="667" 
d="M66 711h202q158 0 241 -70q61 -51 94.5 -125t33.5 -159q0 -95 -37.5 -172t-104.5 -126q-54 -39 -110.5 -49t-147.5 -10h-171v711zM135 643v-576h145q137 0 209.5 77t72.5 215q0 145 -96 228q-41 35 -86.5 45.5t-116.5 10.5h-128z" />
    <glyph glyph-name="E" unicode="E" horiz-adv-x="502" 
d="M136 392h299v-70h-299v-253h299v-69h-369v711h369v-70h-299v-249z" />
    <glyph glyph-name="F" unicode="F" horiz-adv-x="484" 
d="M66 0v711h351v-70h-282v-249h282v-70h-282v-322h-69z" />
    <glyph glyph-name="G" unicode="G" horiz-adv-x="787" 
d="M314 341h442q-9 -156 -112.5 -255.5t-252.5 -99.5q-153 0 -257 107.5t-104 266.5q0 153 111 262q104 103 259 103q104 0 186 -50t132 -143h-86q-98 125 -236 125q-124 0 -208 -88.5t-84 -209.5q0 -132 85 -219t208 -87q97 0 174.5 62t101.5 163h-359v63z" />
    <glyph glyph-name="H" unicode="H" horiz-adv-x="611" 
d="M136 0h-70v711h70v-319h338v319h70v-711h-70v324h-338v-324z" />
    <glyph glyph-name="I" unicode="I" horiz-adv-x="201" 
d="M135 0h-70v711h70v-711z" />
    <glyph glyph-name="J" unicode="J" horiz-adv-x="447" 
d="M313 711h70v-464v-15q0 -110 -29 -159q-25 -42 -68 -65t-96 -23q-79 0 -128 51t-49 137h70q3 -54 34.5 -86t76.5 -32q74 0 96.5 49t22.5 157v450z" />
    <glyph glyph-name="K" unicode="K" horiz-adv-x="537" 
d="M134 219v-219h-69v711h69v-395l329 395h83l-287 -344l282 -367h-86l-241 315z" />
    <glyph glyph-name="L" unicode="L" horiz-adv-x="412" 
d="M386 0h-320v711h70v-642h250v-69z" />
    <glyph glyph-name="M" unicode="M" horiz-adv-x="826" 
d="M70 0v711h103l246 -618l245 618h103v-711h-67v628l-250 -628h-63l-250 628v-628h-67z" />
    <glyph glyph-name="N" unicode="N" horiz-adv-x="667" 
d="M538 85l-8 626h69v-711h-84l-390 627l8 -627h-69v711h84z" />
    <glyph glyph-name="O" unicode="O" horiz-adv-x="787" 
d="M30 360q0 153 111 262q105 103 251 103q149 0 255 -104q109 -107 109 -261q0 -151 -94 -254q-109 -120 -271 -120q-153 0 -257 107.5t-104 266.5zM103 359q0 -131 85 -218.5t208 -87.5q121 0 204.5 88.5t83.5 219.5q0 120 -85.5 208t-207.5 88q-101 0 -179 -66
q-50 -43 -79.5 -105t-29.5 -127z" />
    <glyph glyph-name="P" unicode="P" horiz-adv-x="505" 
d="M58 711h151q120 0 169 -29q97 -58 97 -175q0 -54 -22.5 -99.5t-63.5 -72.5q-54 -36 -168 -36h-93v-299h-70v711zM128 641v-271h103q85 0 126.5 32.5t41.5 101.5q0 74 -43 105.5t-131 31.5h-97z" />
    <glyph glyph-name="Q" unicode="Q" horiz-adv-x="787" 
d="M530 87q-79 83 -135 117.5t-135 34.5q-54 0 -121 -31q41 -74 110 -115t147 -41q64 0 134 35zM587 129q97 97 97 232q0 120 -85.5 208t-207.5 88q-119 0 -203.5 -89t-84.5 -205q0 -45 12 -92q74 35 152 35q91 0 162 -42t158 -135zM641 85q43 -28 114 -28h9v-62
q-28 -2 -35 -2q-72 0 -143 50q-87 -57 -194 -57q-152 0 -257 107.5t-105 266.5q0 153 111 262q105 103 251 103q155 0 259.5 -105.5t104.5 -271.5q0 -155 -115 -263z" />
    <glyph glyph-name="R" unicode="R" horiz-adv-x="556" 
d="M125 641v-641h-69v711h191q112 0 171 -41q43 -30 67.5 -79.5t24.5 -105.5q0 -82 -49 -142t-123 -65l172 -278h-83l-211 343h67q68 0 110 39.5t42 101.5q0 76 -51 122q-18 17 -45 25t-47.5 9t-63.5 1h-103z" />
    <glyph glyph-name="S" unicode="S" horiz-adv-x="465" 
d="M28 203h68q1 -66 37 -105t93 -39q63 0 99 39t36 105q0 35 -8.5 58.5t-35 41t-42.5 24t-64 22.5q-11 4 -17 6q-77 26 -112 67t-35 109q0 84 52.5 138.5t137.5 54.5q79 0 126.5 -49t52.5 -139h-66q-5 58 -34.5 89.5t-78.5 31.5q-53 0 -86.5 -34.5t-33.5 -87.5t42 -85
q15 -11 36.5 -19.5t54 -19t51.5 -17.5q68 -27 99 -68.5t31 -109.5q0 -103 -56 -166.5t-150 -63.5q-86 0 -141 60t-56 157z" />
    <glyph glyph-name="T" unicode="T" horiz-adv-x="366" 
d="M218 0h-70v641h-142v70h354v-70h-142v-641z" />
    <glyph glyph-name="U" unicode="U" horiz-adv-x="565" 
d="M55 711h70v-435v-15q0 -86 18 -124q19 -40 56 -63t83 -23q82 0 120 56t38 169v435h69v-452q0 -274 -222 -274q-120 0 -176 67t-56 207v452z" />
    <glyph glyph-name="V" unicode="V" horiz-adv-x="556" 
d="M-20 711h70l225 -606l226 606h70l-268 -711h-55z" />
    <glyph glyph-name="W" unicode="W" horiz-adv-x="813" 
d="M439 711l143 -583l178 583h68l-220 -711h-58l-143 580l-143 -580h-58l-221 711h69l177 -583l144 583h64z" />
    <glyph glyph-name="X" unicode="X" horiz-adv-x="569" 
d="M83 0h-86l247 358l-241 353h87l195 -295l195 295h86l-241 -353l247 -358h-88l-199 302z" />
    <glyph glyph-name="Y" unicode="Y" horiz-adv-x="479" 
d="M272 261v-261h-69v262l-227 449h80l182 -369l184 369h78z" />
    <glyph glyph-name="Z" unicode="Z" horiz-adv-x="458" 
d="M351 641h-312v70h393v-67l-333 -575h340v-69h-420v67z" />
    <glyph glyph-name="bracketleft" unicode="[" horiz-adv-x="264" 
d="M227 -143v-57h-162v911h162v-58h-93v-796h93z" />
    <glyph glyph-name="backslash" unicode="\" horiz-adv-x="278" 
d="M243 -93l-243 804h58l244 -804h-59z" />
    <glyph glyph-name="bracketright" unicode="]" horiz-adv-x="264" 
d="M37 -143h93v796h-93v58h162v-911h-162v57z" />
    <glyph glyph-name="asciicircum" unicode="^" horiz-adv-x="1000" 
d="M534 712l259 -272h-70l-223 222l-224 -222h-70l260 272h68z" />
    <glyph glyph-name="underscore" unicode="_" 
d="M500 -187v-49h-500v49h500z" />
    <glyph glyph-name="grave" unicode="`" 
d="M266 609l-131 171h74l102 -171h-45z" />
    <glyph glyph-name="a" unicode="a" horiz-adv-x="630" 
d="M509 85q-32 -46 -87 -72.5t-119 -26.5q-119 0 -197 81.5t-78 198.5q0 120 79.5 201.5t201.5 81.5q128 0 200 -98v86h67v-537h-67v85zM509 272q0 86 -61.5 149.5t-140.5 63.5q-85 0 -146.5 -63t-61.5 -159q0 -91 61.5 -152t144.5 -61q80 0 142 64t62 158z" />
    <glyph glyph-name="b" unicode="b" horiz-adv-x="630" 
d="M121 263q0 -86 61 -149.5t140 -63.5q85 0 146.5 63t61.5 159q0 91 -61.5 152t-144.5 61t-143 -64t-60 -158zM121 711v-160v-64v-40q86 102 211 102q114 0 192 -82t78 -198q0 -120 -79.5 -201.5t-201.5 -81.5q-118 0 -200 95v-81h-68v711h68z" />
    <glyph glyph-name="c" unicode="c" horiz-adv-x="606" 
d="M485 372q-63 115 -186 115q-82 0 -140.5 -62.5t-58.5 -156.5q0 -93 58 -155t144 -62q61 0 109.5 30.5t73.5 86.5h76q-31 -88 -98 -135.5t-158 -47.5q-118 0 -197.5 83.5t-79.5 198.5q0 119 81.5 202t197.5 83q87 0 154 -47t100 -133h-76z" />
    <glyph glyph-name="d" unicode="d" horiz-adv-x="630" 
d="M507 452v120v139h69v-711h-69v81q-36 -45 -90 -70t-114 -25q-116 0 -195.5 82t-79.5 201q0 117 78 198.5t197 81.5q130 0 204 -97zM509 263q0 94 -62 158t-142 64q-83 0 -144.5 -61t-61.5 -152q0 -96 61.5 -159t146.5 -63q79 0 140.5 63.5t61.5 149.5z" />
    <glyph glyph-name="e" unicode="e" horiz-adv-x="606" 
d="M506 305q-39 182 -208 182q-78 0 -132 -49t-67 -133h407zM582 247h-485q7 -89 64.5 -142.5t141.5 -53.5q60 0 108.5 31t75.5 88h78q-37 -90 -104.5 -137.5t-155.5 -47.5q-119 0 -199 84t-80 200q0 122 78.5 202.5t203.5 80.5q120 0 197 -83t77 -217v-5z" />
    <glyph glyph-name="f" unicode="f" horiz-adv-x="275" 
d="M151 0h-67v477h-72v60h69v15q0 85 43 126t133 41h6v-62q-62 -1 -87.5 -24.5t-25.5 -80.5v-15h113v-60h-112v-477z" />
    <glyph glyph-name="g" unicode="g" horiz-adv-x="625" 
d="M99 273q0 -97 61 -159t143 -62q79 0 140.5 63t61.5 150q0 93 -60.5 157.5t-141.5 64.5q-82 0 -143 -61t-61 -153zM147 -44q16 -47 57 -73t99 -26q90 0 146.5 60t56.5 164v14q-78 -107 -199 -107q-122 0 -201.5 81t-79.5 201q0 119 79.5 199.5t195.5 80.5q131 0 205 -101
v88h67v-448q0 -143 -71.5 -221t-193.5 -78q-91 0 -156.5 45t-84.5 121h80z" />
    <glyph glyph-name="h" unicode="h" horiz-adv-x="558" 
d="M54 711h68v-237q60 74 165 74q117 0 167 -67t50 -208v-273h-68v274q0 109 -32 158.5t-121 49.5q-96 0 -138 -73q-11 -19 -16 -44.5t-6 -44.5t-1 -59v-261h-68v711z" />
    <glyph glyph-name="i" unicode="i" horiz-adv-x="181" 
d="M56 0v537h69v-537h-69zM125 600h-69v111h69v-111z" />
    <glyph glyph-name="j" unicode="j" horiz-adv-x="181" 
d="M125 537v-539q0 -91 -25 -131t-95 -40h-15v64q46 0 56 18.5t10 78.5v549h69zM125 600h-69v111h69v-111z" />
    <glyph glyph-name="k" unicode="k" horiz-adv-x="414" 
d="M125 0h-69v711h69v-423l194 249h79l-195 -249l237 -288h-87l-228 280v-280z" />
    <glyph glyph-name="l" unicode="l" horiz-adv-x="181" 
d="M56 0v711h69v-711h-69z" />
    <glyph glyph-name="m" unicode="m" horiz-adv-x="931" 
d="M477 453q67 95 190 95q112 0 160.5 -67.5t48.5 -209.5v-271h-66v285q0 102 -33.5 149.5t-116.5 47.5q-94 0 -136 -73q-11 -19 -16 -44.5t-6 -44.5t-1 -59v-261h-65v301q0 92 -37 136.5t-116 44.5q-96 0 -138 -73q-11 -19 -16 -44.5t-6 -44.5t-1 -59v-261h-68v537h68v-61
q62 72 167 72q61 0 111.5 -26t76.5 -69z" />
    <glyph glyph-name="n" unicode="n" horiz-adv-x="558" 
d="M55 537h67v-61q63 72 169 72q123 0 178 -85q21 -33 28 -74t7 -108v-281h-68v301q0 94 -36 137.5t-117 43.5q-96 0 -138 -73q-11 -19 -16 -44.5t-6 -44.5t-1 -59v-261h-67v537z" />
    <glyph glyph-name="o" unicode="o" horiz-adv-x="606" 
d="M26 268q0 119 81.5 202.5t191.5 83.5q118 0 199.5 -83t81.5 -196q0 -120 -80 -205t-196 -85q-118 0 -198 84t-80 199zM98 269q0 -93 59 -155.5t147 -62.5q86 0 145 62.5t59 156.5q0 96 -60 157t-150 61q-80 0 -140 -62t-60 -157z" />
    <glyph glyph-name="p" unicode="p" horiz-adv-x="630" 
d="M121 272q0 -94 61.5 -158t141.5 -64q83 0 144.5 61t61.5 152q0 96 -61.5 159t-146.5 63q-80 0 -140.5 -64t-60.5 -149zM53 537h68v-88q29 45 83.5 72.5t116.5 27.5q122 0 201.5 -81.5t79.5 -201.5q0 -117 -78 -198.5t-198 -81.5q-134 0 -205 99v-37v-80v-142h-68v711z
" />
    <glyph glyph-name="q" unicode="q" horiz-adv-x="630" 
d="M509 272q0 86 -61.5 149.5t-140.5 63.5q-85 0 -146.5 -63t-61.5 -159q0 -91 61.5 -152t144.5 -61q80 0 142 64t62 158zM507 537h69v-711h-69v146v109q-72 -95 -204 -95q-119 0 -197 81.5t-78 198.5q0 120 79.5 201.5t201.5 81.5q126 0 198 -98v86z" />
    <glyph glyph-name="r" unicode="r" horiz-adv-x="250" 
d="M124 0h-70v537h65v-62q49 69 126 70v-75q-68 -6 -94.5 -40.5t-26.5 -105.5v-324z" />
    <glyph glyph-name="s" unicode="s" horiz-adv-x="389" 
d="M21 169h71v-2q0 -51 29 -83.5t71 -32.5q40 0 67 25t27 64q0 41 -23 64t-75 42q-76 27 -110 57t-34 97q0 63 45.5 107t110.5 44q69 0 109.5 -39t43.5 -109h-74q-2 39 -24 59.5t-59 20.5q-34 0 -56.5 -23t-22.5 -56q0 -46 40 -70q19 -12 57.5 -23.5t49.5 -16.5
q98 -42 98 -148q0 -69 -48.5 -114.5t-122.5 -45.5q-75 0 -121.5 49t-48.5 134z" />
    <glyph glyph-name="t" unicode="t" horiz-adv-x="273" 
d="M102 0v468h-102v69h102v174h69v-174h102v-69h-102v-468h-69z" />
    <glyph glyph-name="u" unicode="u" horiz-adv-x="558" 
d="M53 537h68v-285q0 -104 33.5 -152.5t119.5 -48.5q95 0 138 73q11 18 16 43.5t6 45.5t1 60v264h69v-537h-69v58q-60 -72 -163 -72q-121 0 -170 65.5t-49 205.5v280z" />
    <glyph glyph-name="v" unicode="v" horiz-adv-x="477" 
d="M265 0h-63l-210 537h73l172 -433l173 433h75z" />
    <glyph glyph-name="w" unicode="w" horiz-adv-x="694" 
d="M496 135l130 402h73l-181 -537h-45l-126 409l-124 -409h-45l-181 537h72l131 -402l123 402h50z" />
    <glyph glyph-name="x" unicode="x" horiz-adv-x="414" 
d="M84 537l125 -203l134 203h79l-174 -257l173 -280h-78l-138 224l-144 -224h-76l182 279l-160 258h77z" />
    <glyph glyph-name="y" unicode="y" horiz-adv-x="461" 
d="M-16 537h79l166 -436l174 436h80l-290 -711h-74l72 175z" />
    <glyph glyph-name="z" unicode="z" horiz-adv-x="403" 
d="M381 0h-371v65l280 407h-249v65h325v-74l-274 -394h289v-69z" />
    <glyph glyph-name="braceleft" unicode="{" 
d="M417 669h-18q-67 0 -88 -26t-21 -98v-118q0 -77 -19.5 -114.5t-76.5 -53.5q57 -16 76.5 -53.5t19.5 -114.5v-118q0 -72 20 -98t85 -26q3 0 10.5 0.5t11.5 0.5v-52h-23q-100 0 -132 37.5t-32 142.5v119q0 75 -27.5 106t-95.5 31q-3 0 -10.5 -0.5t-11.5 -0.5v53
q4 0 11.5 -0.5t10.5 -0.5q68 0 95.5 31t27.5 106v118q0 105 32.5 143t131.5 38h23v-52z" />
    <glyph glyph-name="bar" unicode="|" 
d="M277 764v-1000h-53v1000h53z" />
    <glyph glyph-name="braceright" unicode="}" 
d="M271 540v-118q0 -75 27.5 -106t95.5 -31q3 0 10.5 0.5t11.5 0.5v-53q-4 0 -11.5 0.5t-10.5 0.5q-68 0 -95.5 -31t-27.5 -106v-119q0 -105 -32 -142.5t-132 -37.5h-23v52h19q66 0 87 25.5t21 97.5v118q0 77 19 114.5t77 53.5q-58 16 -77 53.5t-19 114.5v118q0 73 -20 99
t-85 26q-3 0 -10.5 -0.5t-11.5 -0.5v52h23q99 0 131.5 -38t32.5 -143z" />
    <glyph glyph-name="asciitilde" unicode="~" horiz-adv-x="833" 
d="M747 311q-98 -70 -189 -70q-11 0 -22 1t-22.5 3t-19.5 4t-21 6t-18 5.5t-20 7t-18 6.5q-94 34 -141 34q-78 0 -189 -78v55q103 71 189 71q50 0 141 -33q4 -1 20 -7t21 -7.5t18.5 -6t21 -6t19 -4t21.5 -3.5t20 -1q80 0 189 78v-55z" />
    <glyph glyph-name="exclamdown" unicode="&#xa1;" horiz-adv-x="287" 
d="M109 525h69v-525h-69v525zM109 711h69v-130h-69v130z" />
    <glyph glyph-name="cent" unicode="&#xa2;" horiz-adv-x="565" 
d="M475 444q-41 132 -178 132q-79 0 -135.5 -63.5t-56.5 -159.5q0 -94 56.5 -157.5t140.5 -63.5q62 0 108.5 36t64.5 100h72q-58 -179 -220 -196v-112h-65v113q-100 14 -164 95t-64 185q0 108 63.5 186.5t164.5 94.5v103h65v-101q171 -20 220 -192h-72z" />
    <glyph glyph-name="sterling" unicode="&#xa3;" horiz-adv-x="565" 
d="M420 396v-69h-188q39 -69 39 -142q0 -68 -35 -123q30 -3 56 -3q91 0 135.5 33.5t44.5 104.5q0 17 -8 62h69q7 -38 7 -58q0 -93 -59 -150q-30 -29 -70 -40t-101 -11h-251v62h109q39 49 39 116q0 71 -51 150h-123v68h71q-20 63 -20 105q0 95 64 159t163 64q84 0 140 -48
t73 -137h-64q-13 58 -52 90.5t-96 32.5q-71 0 -115.5 -45t-44.5 -114q0 -47 27 -107h241z" />
    <glyph glyph-name="currency" unicode="&#xa4;" horiz-adv-x="606" 
d="M176 591q58 44 127 44q72 0 128 -44l100 100l32 -32l-100 -100q43 -58 43 -127q0 -68 -43 -126l100 -101l-32 -32l-100 100q-58 -44 -128 -44q-68 0 -127 44l-100 -100l-32 32l100 101q-44 60 -44 126q0 67 44 127l-100 100l32 32zM461 433q0 65 -45.5 111t-111.5 46
q-65 0 -112 -46.5t-47 -110.5q0 -65 47 -112t112 -47t111 47t46 112z" />
    <glyph glyph-name="yen" unicode="&#xa5;" horiz-adv-x="565" 
d="M416 462h90v-54h-119l-43 -82h162v-54h-190v-272h-69v272h-191v54h163l-42 82h-121v54h92l-126 244h79l183 -365l180 365h79z" />
    <glyph glyph-name="brokenbar" unicode="&#xa6;" 
d="M277 699v-370h-53v370h53zM277 199v-370h-53v370h53z" />
    <glyph glyph-name="section" unicode="&#xa7;" 
d="M83 62h67v-6q0 -49 25 -76t70 -27q41 0 65 21.5t24 59.5q0 33 -18.5 55.5t-60.5 48.5l-105 65q-97 61 -97 136q0 94 97 145q-51 38 -51 101q0 60 42.5 100t110.5 40q71 0 112 -40.5t41 -112.5v-12h-63q-1 52 -25.5 79.5t-70.5 27.5q-36 0 -57.5 -22t-21.5 -58
q0 -55 69 -96l99 -59q58 -35 84 -70t26 -83q0 -87 -95 -137q52 -46 52 -111q0 -61 -45.5 -99.5t-113.5 -38.5q-74 0 -117.5 42t-43.5 112q0 3 0.5 8t0.5 7zM191 257l121 -77q62 41 62 93q0 32 -18 55.5t-58 48.5l-108 67q-69 -28 -69 -88q0 -55 70 -99z" />
    <glyph glyph-name="dieresis" unicode="&#xa8;" 
d="M125 641v80h69v-80h-69zM305 641v80h70v-80h-70z" />
    <glyph glyph-name="copyright" unicode="&#xa9;" horiz-adv-x="833" 
d="M416 711q150 0 255 -105q103 -103 103 -253t-103 -251q-109 -107 -255 -107t-252 106q-105 105 -105 252q0 146 107 255q101 103 250 103zM735 353q0 133 -92 225q-94 94 -227 94t-223 -92q-95 -97 -95 -227t94 -224t224 -94q131 0 228 95q91 89 91 223zM524 447
q-9 39 -37 60.5t-69 21.5q-59 0 -92.5 -46t-33.5 -131q0 -82 34 -127.5t92 -45.5q44 0 74 24.5t38 67.5h56q-5 -61 -53 -100t-118 -39q-86 0 -136 59t-50 164q0 100 53 159.5t138 59.5q66 0 110.5 -35t50.5 -92h-57z" />
    <glyph glyph-name="ordfeminine" unicode="&#xaa;" horiz-adv-x="473" 
d="M382 394q-53 -69 -155 -69q-89 0 -147.5 57t-58.5 139q0 84 60 141t151 57q96 0 150 -68v60h50v-376h-50v59zM382 525q0 61 -46.5 105t-105.5 44q-63 0 -109.5 -44t-46.5 -111q0 -64 46.5 -106.5t108.5 -42.5q60 0 106.5 45t46.5 110z" />
    <glyph glyph-name="guillemotleft" unicode="&#xab;" horiz-adv-x="456" 
d="M176 112l-120 156l120 157h67l-121 -157l121 -156h-67zM324 112l-120 156l120 157h67l-120 -157l120 -156h-67z" />
    <glyph glyph-name="logicalnot" unicode="&#xac;" horiz-adv-x="833" 
d="M709 419v-245h-47v196h-538v49h585z" />
    <glyph glyph-name="registered" unicode="&#xae;" horiz-adv-x="833" 
d="M416 711q152 0 255 -105q103 -103 103 -253t-103 -251q-109 -107 -255 -107q-148 0 -252 106q-105 105 -105 252q0 146 107 255q101 103 250 103zM735 352q0 135 -91 226q-94 94 -228 94q-130 0 -222 -92q-96 -98 -96 -227q0 -130 94 -224t224 -94q131 0 228 95
q91 88 91 222zM427 565q86 0 128 -27.5t42 -86.5q0 -43 -26 -72.5t-71 -35.5l92 -190h-71l-87 181h-96v-181h-62v412h151zM415 523h-77v-148h77q63 0 90.5 15.5t27.5 56.5t-28 58.5t-90 17.5z" />
    <glyph glyph-name="macron" unicode="&#xaf;" 
d="M125 657v57h250v-57h-250z" />
    <glyph glyph-name="degree" unicode="&#xb0;" horiz-adv-x="329" 
d="M165 709q56 0 95.5 -40t39.5 -96t-39.5 -96t-96.5 -40t-96 39.5t-39 96.5t40 96.5t96 39.5zM266 573q0 42 -29.5 72t-71.5 30t-72 -30t-30 -72t30 -71.5t72 -29.5q43 0 72 29.5t29 71.5z" />
    <glyph glyph-name="plusminus" unicode="&#xb1;" horiz-adv-x="833" 
d="M441 571v-170h268v-48h-268v-170h-48v170h-269v48h269v170h48zM709 73v-48h-585v48h585z" />
    <glyph glyph-name="twosuperior" unicode="&#xb2;" horiz-adv-x="373" 
d="M334 284h-291v41l166 144q42 36 61.5 61.5t19.5 56.5q0 39 -28.5 66.5t-73.5 27.5t-72.5 -27.5t-27.5 -73.5v-12h-45v6q0 65 42 105.5t107 40.5q59 0 101 -39t42 -97q0 -65 -73 -126l-158 -133h230v-41z" />
    <glyph glyph-name="threesuperior" unicode="&#xb3;" horiz-adv-x="373" 
d="M82 414v-4q0 -43 29 -70.5t71 -27.5q46 0 76 27.5t30 71.5q0 99 -124 99h-22v35q7 -1 20 -1q93 0 93 70q0 30 -20 49t-50 19q-72 0 -74 -72h-43q3 51 35 80t84 29q49 0 82.5 -31.5t33.5 -73.5q0 -49 -46 -79q78 -37 78 -120q0 -58 -42 -98.5t-108 -40.5q-69 0 -109 36.5
t-41 101.5h47z" />
    <glyph glyph-name="acute" unicode="&#xb4;" 
d="M234 609h-45l102 171h74z" />
    <glyph glyph-name="mu" unicode="&#xb5;" horiz-adv-x="542" 
d="M168 520l-61 -289q-8 -37 -8 -68q0 -57 28.5 -88t81.5 -31q61 0 104.5 52t65.5 152l59 272h68l-80 -376q-11 -49 -11 -65q0 -32 33 -32q8 0 18 1l-10 -54q-19 -5 -42 -5q-67 0 -67 71v7q-43 -79 -146 -79q-92 0 -131 76l-56 -272h-68l154 728h68z" />
    <glyph glyph-name="paragraph" unicode="&#xb6;" 
d="M459 688h-62v-688h-40v688h-92v-688h-40v382q-85 4 -134.5 50t-49.5 120q0 76 52 123t140 47h226v-34z" />
    <glyph glyph-name="periodcentered" unicode="&#xb7;" horiz-adv-x="282" 
d="M96 356q0 19 13 32.5t32 13.5t32.5 -13.5t13.5 -32.5t-13.5 -32t-32.5 -13t-32 13t-13 32z" />
    <glyph glyph-name="cedilla" unicode="&#xb8;" 
d="M250 -54h10q107 0 107 -84q0 -41 -28.5 -63.5t-82.5 -22.5t-123 19v38q80 -17 116 -17q63 0 63 44q0 51 -70 51q-15 0 -23 -1v90h31v-54z" />
    <glyph glyph-name="onesuperior" unicode="&#xb9;" horiz-adv-x="373" 
d="M218 284h-49v390h-82v37h131v-427z" />
    <glyph glyph-name="ordmasculine" unicode="&#xba;" horiz-adv-x="455" 
d="M20 523q0 83 61 141.5t143 58.5q89 0 150 -58t61 -138q0 -84 -60 -143t-147 -59q-89 0 -148.5 58.5t-59.5 139.5zM74 523q0 -65 44 -108.5t110 -43.5q64 0 108.5 43.5t44.5 109.5q0 67 -45 110t-112 43q-61 0 -105.5 -43.5t-44.5 -110.5z" />
    <glyph glyph-name="guillemotright" unicode="&#xbb;" horiz-adv-x="456" 
d="M132 112h-67l121 156l-121 157h67l120 -157zM280 112h-66l120 156l-120 157h66l121 -157z" />
    <glyph glyph-name="onequarter" unicode="&#xbc;" horiz-adv-x="879" 
d="M208 313h-47v364h-78v34h125v-398zM248 -14h-59l442 739h58zM803 0h-43v77h-210v34l203 287h50v-287h49v-34h-49v-77zM761 111l2 241l-167 -241h165z" />
    <glyph glyph-name="onehalf" unicode="&#xbd;" horiz-adv-x="879" 
d="M208 313h-47v364h-78v34h125v-398zM248 -14h-59l442 739h58zM842 0h-278v39l159 133q41 35 59 58.5t18 52.5q0 36 -27 62t-70 26q-44 0 -70 -26t-26 -69v-11h-43v6q0 61 40 98.5t102 37.5q56 0 96.5 -36.5t40.5 -90.5q0 -60 -70 -118l-151 -123h220v-39z" />
    <glyph glyph-name="threequarters" unicode="&#xbe;" horiz-adv-x="879" 
d="M78 434v-3q0 -40 28 -66t68 -26q43 0 72 25.5t29 66.5q0 93 -119 93h-21v33q7 -1 20 -1q89 0 89 65q0 28 -19.5 46t-47.5 18q-33 0 -52 -17.5t-19 -49.5h-41q3 47 34 74t80 27q47 0 78.5 -29.5t31.5 -68.5q0 -45 -43 -74q73 -34 73 -112q0 -54 -40.5 -92t-102.5 -38
q-65 0 -103.5 34t-39.5 95h45zM248 -14h-59l442 739h58zM803 0h-43v77h-210v34l203 287h50v-287h49v-34h-49v-77zM761 111l2 241l-167 -241h165z" />
    <glyph glyph-name="questiondown" unicode="&#xbf;" horiz-adv-x="463" 
d="M259 711v-130h-70v130h70zM189 517h70q0 -92 -75 -173q-8 -8 -30.5 -30t-31 -32.5t-17.5 -34t-9 -52.5q0 -65 35 -101t94 -36q63 0 98.5 41t38.5 118h72q-1 -106 -60 -168.5t-153 -62.5q-89 0 -144 58t-55 151q0 16 1.5 30.5t5.5 27.5t7 22.5t10.5 20.5t11 16.5t14 16.5
t13.5 14t15.5 14t14.5 13q38 35 55.5 68t18.5 79z" />
    <glyph glyph-name="Agrave" unicode="&#xc0;" horiz-adv-x="597" 
d="M426 287l-135 357l-133 -357h268zM49 0h-74l276 711h84l275 -711h-75l-85 223h-316zM308 780l-131 171h74l102 -171h-45z" />
    <glyph glyph-name="Aacute" unicode="&#xc1;" horiz-adv-x="597" 
d="M426 287l-135 357l-133 -357h268zM49 0h-74l276 711h84l275 -711h-75l-85 223h-316zM276 780h-45l102 171h74z" />
    <glyph glyph-name="Acircumflex" unicode="&#xc2;" horiz-adv-x="597" 
d="M426 287l-135 357l-133 -357h268zM49 0h-74l276 711h84l275 -711h-75l-85 223h-316zM157 780l98 171h74l98 -171h-45l-90 129l-90 -129h-45z" />
    <glyph glyph-name="Atilde" unicode="&#xc3;" horiz-adv-x="597" 
d="M426 287l-135 357l-133 -357h268zM49 0h-74l276 711h84l275 -711h-75l-85 223h-316zM433 903q-25 -90 -93 -90q-14 0 -32 5l-47 15q-14 4 -26 4q-30 0 -45 -36h-39q21 90 95 90q15 0 26 -4l47 -15q14 -5 27 -5q31 0 47 36h40z" />
    <glyph glyph-name="Adieresis" unicode="&#xc4;" horiz-adv-x="597" 
d="M426 287l-135 357l-133 -357h268zM49 0h-74l276 711h84l275 -711h-75l-85 223h-316zM167 812v80h69v-80h-69zM347 812v80h70v-80h-70z" />
    <glyph glyph-name="Aring" unicode="&#xc5;" horiz-adv-x="597" 
d="M49 0h-74l276 711h84l275 -711h-75l-85 223h-316zM426 287l-135 357l-133 -357h268zM181 851q0 47 32.5 79.5t79.5 32.5t79.5 -32.5t32.5 -79.5t-32.5 -79.5t-79.5 -32.5t-79.5 32.5t-32.5 79.5zM225 851q0 -29 20 -49t49 -20t49.5 20t20.5 49t-21 50t-49 21t-48.5 -21
t-20.5 -50z" />
    <glyph glyph-name="AE" unicode="&#xc6;" horiz-adv-x="884" 
d="M179 236l-161 -236h-84l489 711h402v-70h-299v-249h299v-70h-299v-253h299v-69h-369v236h-277zM227 306h231l3 335h-8z" />
    <glyph glyph-name="Ccedilla" unicode="&#xc7;" horiz-adv-x="752" 
d="M633 527q-94 129 -242 129q-119 0 -203 -88.5t-84 -208.5q0 -130 84.5 -218t202.5 -88q149 0 237 123h83q-49 -91 -131 -140.5t-184 -49.5q-158 0 -262 107t-104 267q0 153 111 262q103 103 251 103q106 0 191 -51.5t134 -146.5h-84zM391 -54h10q107 0 107 -84
q0 -41 -28.5 -63.5t-82.5 -22.5t-123 19v38q80 -17 116 -17q63 0 63 44q0 51 -70 51q-15 0 -23 -1v90h31v-54z" />
    <glyph glyph-name="Egrave" unicode="&#xc8;" horiz-adv-x="502" 
d="M136 392h299v-70h-299v-253h299v-69h-369v711h369v-70h-299v-249zM274 780l-131 171h74l102 -171h-45z" />
    <glyph glyph-name="Eacute" unicode="&#xc9;" horiz-adv-x="502" 
d="M136 392h299v-70h-299v-253h299v-69h-369v711h369v-70h-299v-249zM242 780h-45l102 171h74z" />
    <glyph glyph-name="Ecircumflex" unicode="&#xca;" horiz-adv-x="502" 
d="M136 392h299v-70h-299v-253h299v-69h-369v711h369v-70h-299v-249zM123 780l98 171h74l98 -171h-45l-90 129l-90 -129h-45z" />
    <glyph glyph-name="Edieresis" unicode="&#xcb;" horiz-adv-x="502" 
d="M136 392h299v-70h-299v-253h299v-69h-369v711h369v-70h-299v-249zM133 812v80h69v-80h-69zM313 812v80h70v-80h-70z" />
    <glyph glyph-name="Igrave" unicode="&#xcc;" horiz-adv-x="201" 
d="M135 0h-70v711h70v-711zM117 780l-131 171h74l102 -171h-45z" />
    <glyph glyph-name="Iacute" unicode="&#xcd;" horiz-adv-x="201" 
d="M135 0h-70v711h70v-711zM85 780h-45l102 171h74z" />
    <glyph glyph-name="Icircumflex" unicode="&#xce;" horiz-adv-x="201" 
d="M135 0h-70v711h70v-711zM-34 780l98 171h74l98 -171h-45l-90 129l-90 -129h-45z" />
    <glyph glyph-name="Idieresis" unicode="&#xcf;" horiz-adv-x="201" 
d="M135 0h-70v711h70v-711zM-24 812v80h69v-80h-69zM156 812v80h70v-80h-70z" />
    <glyph glyph-name="Eth" unicode="&#xd0;" horiz-adv-x="674" 
d="M73 0v326h-75v62h75v323h214q162 0 259.5 -100t97.5 -258q0 -90 -37.5 -165.5t-106.5 -126.5q-53 -39 -106 -50t-136 -11h-185zM293 643h-151v-255h175v-62h-175v-259h164q119 0 191 79.5t72 212.5q0 128 -72.5 206t-203.5 78z" />
    <glyph glyph-name="Ntilde" unicode="&#xd1;" horiz-adv-x="667" 
d="M538 85l-8 626h69v-711h-84l-390 627l8 -627h-69v711h84zM475 903q-25 -90 -93 -90q-14 0 -32 5l-47 15q-14 4 -26 4q-30 0 -45 -36h-39q21 90 95 90q15 0 26 -4l47 -15q14 -5 27 -5q31 0 47 36h40z" />
    <glyph glyph-name="Ograve" unicode="&#xd2;" horiz-adv-x="787" 
d="M30 360q0 153 111 262q105 103 251 103q149 0 255 -104q109 -107 109 -261q0 -151 -94 -254q-109 -120 -271 -120q-153 0 -257 107.5t-104 266.5zM103 359q0 -131 85 -218.5t208 -87.5q121 0 204.5 88.5t83.5 219.5q0 120 -85.5 208t-207.5 88q-101 0 -179 -66
q-50 -43 -79.5 -105t-29.5 -127zM410 780l-131 171h74l102 -171h-45z" />
    <glyph glyph-name="Oacute" unicode="&#xd3;" horiz-adv-x="787" 
d="M30 360q0 153 111 262q105 103 251 103q149 0 255 -104q109 -107 109 -261q0 -151 -94 -254q-109 -120 -271 -120q-153 0 -257 107.5t-104 266.5zM103 359q0 -131 85 -218.5t208 -87.5q121 0 204.5 88.5t83.5 219.5q0 120 -85.5 208t-207.5 88q-101 0 -179 -66
q-50 -43 -79.5 -105t-29.5 -127zM378 780h-45l102 171h74z" />
    <glyph glyph-name="Ocircumflex" unicode="&#xd4;" horiz-adv-x="787" 
d="M30 360q0 153 111 262q105 103 251 103q149 0 255 -104q109 -107 109 -261q0 -151 -94 -254q-109 -120 -271 -120q-153 0 -257 107.5t-104 266.5zM103 359q0 -131 85 -218.5t208 -87.5q121 0 204.5 88.5t83.5 219.5q0 120 -85.5 208t-207.5 88q-101 0 -179 -66
q-50 -43 -79.5 -105t-29.5 -127zM259 780l98 171h74l98 -171h-45l-90 129l-90 -129h-45z" />
    <glyph glyph-name="Otilde" unicode="&#xd5;" horiz-adv-x="787" 
d="M30 360q0 153 111 262q105 103 251 103q149 0 255 -104q109 -107 109 -261q0 -151 -94 -254q-109 -120 -271 -120q-153 0 -257 107.5t-104 266.5zM103 359q0 -131 85 -218.5t208 -87.5q121 0 204.5 88.5t83.5 219.5q0 120 -85.5 208t-207.5 88q-101 0 -179 -66
q-50 -43 -79.5 -105t-29.5 -127zM535 903q-25 -90 -93 -90q-14 0 -32 5l-47 15q-14 4 -26 4q-30 0 -45 -36h-39q21 90 95 90q15 0 26 -4l47 -15q14 -5 27 -5q31 0 47 36h40z" />
    <glyph glyph-name="Odieresis" unicode="&#xd6;" horiz-adv-x="787" 
d="M30 360q0 153 111 262q105 103 251 103q149 0 255 -104q109 -107 109 -261q0 -151 -94 -254q-109 -120 -271 -120q-153 0 -257 107.5t-104 266.5zM103 359q0 -131 85 -218.5t208 -87.5q121 0 204.5 88.5t83.5 219.5q0 120 -85.5 208t-207.5 88q-101 0 -179 -66
q-50 -43 -79.5 -105t-29.5 -127zM269 812v80h69v-80h-69zM449 812v80h70v-80h-70z" />
    <glyph glyph-name="multiply" unicode="&#xd7;" horiz-adv-x="833" 
d="M418 332l235 235l34 -34l-235 -235l235 -235l-34 -34l-235 235l-235 -235l-34 34l235 235l-235 235l34 34z" />
    <glyph glyph-name="Oslash" unicode="&#xd8;" horiz-adv-x="787" 
d="M138 92q-107 116 -107 269q0 152 111 261q105 103 255 103q117 0 209 -69l84 101l47 -37l-87 -104q106 -101 106 -256q0 -161 -105 -267t-259 -106q-112 0 -208 68l-101 -122l-46 38zM604 560l-375 -451q80 -55 163 -55q124 0 208 88.5t84 216.5q0 115 -80 201zM184 148
l376 453q-75 56 -161 56q-126 0 -210 -88.5t-84 -209.5q0 -129 79 -211z" />
    <glyph glyph-name="Ugrave" unicode="&#xd9;" horiz-adv-x="565" 
d="M55 711h70v-435v-15q0 -86 18 -124q19 -40 56 -63t83 -23q82 0 120 56t38 169v435h69v-452q0 -274 -222 -274q-120 0 -176 67t-56 207v452zM299 780l-131 171h74l102 -171h-45z" />
    <glyph glyph-name="Uacute" unicode="&#xda;" horiz-adv-x="565" 
d="M55 711h70v-435v-15q0 -86 18 -124q19 -40 56 -63t83 -23q82 0 120 56t38 169v435h69v-452q0 -274 -222 -274q-120 0 -176 67t-56 207v452zM267 780h-45l102 171h74z" />
    <glyph glyph-name="Ucircumflex" unicode="&#xdb;" horiz-adv-x="565" 
d="M55 711h70v-435v-15q0 -86 18 -124q19 -40 56 -63t83 -23q82 0 120 56t38 169v435h69v-452q0 -274 -222 -274q-120 0 -176 67t-56 207v452zM148 780l98 171h74l98 -171h-45l-90 129l-90 -129h-45z" />
    <glyph glyph-name="Udieresis" unicode="&#xdc;" horiz-adv-x="565" 
d="M55 711h70v-435v-15q0 -86 18 -124q19 -40 56 -63t83 -23q82 0 120 56t38 169v435h69v-452q0 -274 -222 -274q-120 0 -176 67t-56 207v452zM158 812v80h69v-80h-69zM338 812v80h70v-80h-70z" />
    <glyph glyph-name="Yacute" unicode="&#xdd;" horiz-adv-x="479" 
d="M272 261v-261h-69v262l-227 449h80l182 -369l184 369h78zM224 780h-45l102 171h74z" />
    <glyph glyph-name="Thorn" unicode="&#xde;" horiz-adv-x="505" 
d="M58 711h70v-138h94q108 0 153 -26q46 -27 73 -74t27 -101q0 -94 -66 -152.5t-188 -58.5h-93v-161h-70v711zM128 503v-270h103q167 0 167 136q0 73 -52 110q-16 11 -37 16.5t-36.5 6.5t-47.5 1h-97z" />
    <glyph glyph-name="germandbls" unicode="&#xdf;" horiz-adv-x="586" 
d="M56 471q0 124 49 185.5t153 61.5q92 0 148.5 -55.5t56.5 -140.5q0 -50 -19.5 -83.5t-53.5 -43.5q79 -18 122.5 -68t43.5 -125q0 -92 -63.5 -154t-158.5 -62q-151 0 -209 155v-141h-69v471zM125 479v-304h68q39 -125 143 -125q60 0 103.5 42t43.5 98q0 145 -193 145h-44
v56h3q66 0 103.5 35.5t37.5 95.5q0 57 -38 93.5t-96 36.5q-60 0 -95.5 -37t-35.5 -101v-35z" />
    <glyph glyph-name="agrave" unicode="&#xe0;" horiz-adv-x="630" 
d="M509 85q-32 -46 -87 -72.5t-119 -26.5q-119 0 -197 81.5t-78 198.5q0 120 79.5 201.5t201.5 81.5q128 0 200 -98v86h67v-537h-67v85zM509 272q0 86 -61.5 149.5t-140.5 63.5q-85 0 -146.5 -63t-61.5 -159q0 -91 61.5 -152t144.5 -61q80 0 142 64t62 158zM326 609
l-131 171h74l102 -171h-45z" />
    <glyph glyph-name="aacute" unicode="&#xe1;" horiz-adv-x="630" 
d="M509 85q-32 -46 -87 -72.5t-119 -26.5q-119 0 -197 81.5t-78 198.5q0 120 79.5 201.5t201.5 81.5q128 0 200 -98v86h67v-537h-67v85zM509 272q0 86 -61.5 149.5t-140.5 63.5q-85 0 -146.5 -63t-61.5 -159q0 -91 61.5 -152t144.5 -61q80 0 142 64t62 158zM294 609h-45
l102 171h74z" />
    <glyph glyph-name="acircumflex" unicode="&#xe2;" horiz-adv-x="630" 
d="M509 85q-32 -46 -87 -72.5t-119 -26.5q-119 0 -197 81.5t-78 198.5q0 120 79.5 201.5t201.5 81.5q128 0 200 -98v86h67v-537h-67v85zM509 272q0 86 -61.5 149.5t-140.5 63.5q-85 0 -146.5 -63t-61.5 -159q0 -91 61.5 -152t144.5 -61q80 0 142 64t62 158zM175 609l98 171
h74l98 -171h-45l-90 129l-90 -129h-45z" />
    <glyph glyph-name="atilde" unicode="&#xe3;" horiz-adv-x="630" 
d="M509 85q-32 -46 -87 -72.5t-119 -26.5q-119 0 -197 81.5t-78 198.5q0 120 79.5 201.5t201.5 81.5q128 0 200 -98v86h67v-537h-67v85zM509 272q0 86 -61.5 149.5t-140.5 63.5q-85 0 -146.5 -63t-61.5 -159q0 -91 61.5 -152t144.5 -61q80 0 142 64t62 158zM451 732
q-25 -90 -93 -90q-14 0 -32 5l-47 15q-14 4 -26 4q-30 0 -45 -36h-39q21 90 95 90q15 0 26 -4l47 -15q14 -5 27 -5q31 0 47 36h40z" />
    <glyph glyph-name="adieresis" unicode="&#xe4;" horiz-adv-x="630" 
d="M509 85q-32 -46 -87 -72.5t-119 -26.5q-119 0 -197 81.5t-78 198.5q0 120 79.5 201.5t201.5 81.5q128 0 200 -98v86h67v-537h-67v85zM509 272q0 86 -61.5 149.5t-140.5 63.5q-85 0 -146.5 -63t-61.5 -159q0 -91 61.5 -152t144.5 -61q80 0 142 64t62 158zM185 641v80h69
v-80h-69zM365 641v80h70v-80h-70z" />
    <glyph glyph-name="aring" unicode="&#xe5;" horiz-adv-x="630" 
d="M509 272q0 86 -61.5 149.5t-140.5 63.5q-85 0 -146.5 -63t-61.5 -159q0 -91 61.5 -152t144.5 -61q80 0 142 64t62 158zM509 85q-32 -46 -87 -72.5t-119 -26.5q-119 0 -197 81.5t-78 198.5q0 120 79.5 201.5t201.5 81.5q128 0 200 -98v86h67v-537h-67v85zM203 689
q0 47 32.5 79.5t79.5 32.5t80 -33t33 -79t-33 -79t-80 -33t-79.5 32.5t-32.5 79.5zM247 690q0 -29 20 -49.5t49 -20.5t49.5 20.5t20.5 49.5q0 28 -21 49t-49 21q-29 0 -49 -20.5t-20 -49.5z" />
    <glyph glyph-name="ae" unicode="&#xe6;" horiz-adv-x="1088" 
d="M509 272q0 87 -62 151t-140 64q-85 0 -146.5 -64t-61.5 -160q0 -91 61.5 -152t144.5 -61q80 0 142 64t62 158zM988 305q-18 87 -71 134.5t-131 47.5q-80 0 -134.5 -48.5t-69.5 -133.5h406zM576 0h-69v75q-84 -90 -204 -90q-119 0 -197 82t-78 199q0 120 79.5 201.5
t201.5 81.5q109 0 198 -89v77h69v-79q88 91 213 91q119 0 196 -82t77 -215v-7h-482q7 -87 64.5 -141t140.5 -54q60 0 108 30.5t75 87.5h77q-37 -88 -103.5 -135.5t-154.5 -47.5q-130 0 -211 90v-75z" />
    <glyph glyph-name="ccedilla" unicode="&#xe7;" horiz-adv-x="606" 
d="M485 372q-63 115 -186 115q-82 0 -140.5 -62.5t-58.5 -156.5q0 -93 58 -155t144 -62q61 0 109.5 30.5t73.5 86.5h76q-31 -88 -98 -135.5t-158 -47.5q-118 0 -197.5 83.5t-79.5 198.5q0 119 81.5 202t197.5 83q87 0 154 -47t100 -133h-76zM303 -54h10q107 0 107 -84
q0 -41 -28.5 -63.5t-82.5 -22.5t-123 19v38q80 -17 116 -17q63 0 63 44q0 51 -70 51q-15 0 -23 -1v90h31v-54z" />
    <glyph glyph-name="egrave" unicode="&#xe8;" horiz-adv-x="606" 
d="M506 305q-39 182 -208 182q-78 0 -132 -49t-67 -133h407zM582 247h-485q7 -89 64.5 -142.5t141.5 -53.5q60 0 108.5 31t75.5 88h78q-37 -90 -104.5 -137.5t-155.5 -47.5q-119 0 -199 84t-80 200q0 122 78.5 202.5t203.5 80.5q120 0 197 -83t77 -217v-5zM325 609l-131 171
h74l102 -171h-45z" />
    <glyph glyph-name="eacute" unicode="&#xe9;" horiz-adv-x="606" 
d="M506 305q-39 182 -208 182q-78 0 -132 -49t-67 -133h407zM582 247h-485q7 -89 64.5 -142.5t141.5 -53.5q60 0 108.5 31t75.5 88h78q-37 -90 -104.5 -137.5t-155.5 -47.5q-119 0 -199 84t-80 200q0 122 78.5 202.5t203.5 80.5q120 0 197 -83t77 -217v-5zM293 609h-45
l102 171h74z" />
    <glyph glyph-name="ecircumflex" unicode="&#xea;" horiz-adv-x="606" 
d="M506 305q-39 182 -208 182q-78 0 -132 -49t-67 -133h407zM582 247h-485q7 -89 64.5 -142.5t141.5 -53.5q60 0 108.5 31t75.5 88h78q-37 -90 -104.5 -137.5t-155.5 -47.5q-119 0 -199 84t-80 200q0 122 78.5 202.5t203.5 80.5q120 0 197 -83t77 -217v-5zM174 609l98 171
h74l98 -171h-45l-90 129l-90 -129h-45z" />
    <glyph glyph-name="edieresis" unicode="&#xeb;" horiz-adv-x="606" 
d="M506 305q-39 182 -208 182q-78 0 -132 -49t-67 -133h407zM582 247h-485q7 -89 64.5 -142.5t141.5 -53.5q60 0 108.5 31t75.5 88h78q-37 -90 -104.5 -137.5t-155.5 -47.5q-119 0 -199 84t-80 200q0 122 78.5 202.5t203.5 80.5q120 0 197 -83t77 -217v-5zM184 641v80h69
v-80h-69zM364 641v80h70v-80h-70z" />
    <glyph glyph-name="igrave" unicode="&#xec;" horiz-adv-x="181" 
d="M56 0v537h69v-537h-69zM107 609l-131 171h74l102 -171h-45z" />
    <glyph glyph-name="iacute" unicode="&#xed;" horiz-adv-x="181" 
d="M56 0v537h69v-537h-69zM75 609h-45l102 171h74z" />
    <glyph glyph-name="icircumflex" unicode="&#xee;" horiz-adv-x="181" 
d="M56 0v537h69v-537h-69zM-44 609l98 171h74l98 -171h-45l-90 129l-90 -129h-45z" />
    <glyph glyph-name="idieresis" unicode="&#xef;" horiz-adv-x="181" 
d="M56 0v537h69v-537h-69zM-34 641v80h69v-80h-69zM146 641v80h70v-80h-70z" />
    <glyph glyph-name="eth" unicode="&#xf0;" horiz-adv-x="606" 
d="M480 447q-33 90 -111 150l-131 -48l-18 40l109 41q-33 20 -78 42l21 45q71 -32 120 -64l140 50l17 -39l-116 -43q147 -136 147 -332q0 -139 -78.5 -221t-198.5 -82q-118 0 -197.5 78.5t-79.5 184.5q0 109 81.5 187t191.5 78q93 0 181 -67zM299 457q-80 0 -140 -58.5
t-60 -145.5q0 -86 58.5 -144t146.5 -58q87 0 145.5 58.5t58.5 149.5q0 84 -59.5 141t-149.5 57z" />
    <glyph glyph-name="ntilde" unicode="&#xf1;" horiz-adv-x="558" 
d="M55 537h67v-61q63 72 169 72q123 0 178 -85q21 -33 28 -74t7 -108v-281h-68v301q0 94 -36 137.5t-117 43.5q-96 0 -138 -73q-11 -19 -16 -44.5t-6 -44.5t-1 -59v-261h-67v537zM426 732q-26 -90 -93 -90q-14 0 -32 5l-47 15q-14 4 -26 4q-30 0 -45 -36h-39q21 90 95 90
q15 0 26 -4l47 -15q14 -5 27 -5q31 0 47 36h40z" />
    <glyph glyph-name="ograve" unicode="&#xf2;" horiz-adv-x="606" 
d="M26 268q0 119 81.5 202.5t191.5 83.5q118 0 199.5 -83t81.5 -196q0 -120 -80 -205t-196 -85q-118 0 -198 84t-80 199zM98 269q0 -93 59 -155.5t147 -62.5q86 0 145 62.5t59 156.5q0 96 -60 157t-150 61q-80 0 -140 -62t-60 -157zM324 609l-131 171h74l102 -171h-45z" />
    <glyph glyph-name="oacute" unicode="&#xf3;" horiz-adv-x="606" 
d="M26 268q0 119 81.5 202.5t191.5 83.5q118 0 199.5 -83t81.5 -196q0 -120 -80 -205t-196 -85q-118 0 -198 84t-80 199zM98 269q0 -93 59 -155.5t147 -62.5q86 0 145 62.5t59 156.5q0 96 -60 157t-150 61q-80 0 -140 -62t-60 -157zM292 609h-45l102 171h74z" />
    <glyph glyph-name="ocircumflex" unicode="&#xf4;" horiz-adv-x="606" 
d="M26 268q0 119 81.5 202.5t191.5 83.5q118 0 199.5 -83t81.5 -196q0 -120 -80 -205t-196 -85q-118 0 -198 84t-80 199zM98 269q0 -93 59 -155.5t147 -62.5q86 0 145 62.5t59 156.5q0 96 -60 157t-150 61q-80 0 -140 -62t-60 -157zM173 609l98 171h74l98 -171h-45l-90 129
l-90 -129h-45z" />
    <glyph glyph-name="otilde" unicode="&#xf5;" horiz-adv-x="606" 
d="M26 268q0 119 81.5 202.5t191.5 83.5q118 0 199.5 -83t81.5 -196q0 -120 -80 -205t-196 -85q-118 0 -198 84t-80 199zM98 269q0 -93 59 -155.5t147 -62.5q86 0 145 62.5t59 156.5q0 96 -60 157t-150 61q-80 0 -140 -62t-60 -157zM449 732q-25 -90 -93 -90q-14 0 -32 5
l-47 15q-14 4 -26 4q-30 0 -45 -36h-39q21 90 95 90q15 0 26 -4l47 -15q14 -5 27 -5q31 0 47 36h40z" />
    <glyph glyph-name="odieresis" unicode="&#xf6;" horiz-adv-x="606" 
d="M26 268q0 119 81.5 202.5t191.5 83.5q118 0 199.5 -83t81.5 -196q0 -120 -80 -205t-196 -85q-118 0 -198 84t-80 199zM98 269q0 -93 59 -155.5t147 -62.5q86 0 145 62.5t59 156.5q0 96 -60 157t-150 61q-80 0 -140 -62t-60 -157zM183 641v80h69v-80h-69zM363 641v80h70
v-80h-70z" />
    <glyph glyph-name="divide" unicode="&#xf7;" horiz-adv-x="833" 
d="M417 523q22 0 37 -15.5t15 -37.5q0 -21 -15 -36.5t-37 -15.5t-37 15t-15 37t15.5 37.5t36.5 15.5zM709 322v-48h-585v48h585zM417 178q22 0 37 -15t15 -37q0 -21 -15 -36.5t-37 -15.5t-37 15t-15 37t15.5 37t36.5 15z" />
    <glyph glyph-name="oslash" unicode="&#xf8;" horiz-adv-x="606" 
d="M416 452q-42 36 -112 36q-86 0 -146 -61.5t-60 -157.5q0 -81 46 -142zM186 88q50 -37 111 -37q92 0 151.5 61.5t59.5 158.5q0 79 -48 144zM56 -67l-41 39l86 103q-75 80 -75 193q0 120 81 202.5t196 82.5q89 0 156 -49l82 98l45 -35l-84 -101q78 -80 78 -195
q0 -117 -80.5 -201.5t-201.5 -84.5q-82 0 -155 51z" />
    <glyph glyph-name="ugrave" unicode="&#xf9;" horiz-adv-x="558" 
d="M53 537h68v-285q0 -104 33.5 -152.5t119.5 -48.5q95 0 138 73q11 18 16 43.5t6 45.5t1 60v264h69v-537h-69v58q-60 -72 -163 -72q-121 0 -170 65.5t-49 205.5v280zM292 609l-131 171h74l102 -171h-45z" />
    <glyph glyph-name="uacute" unicode="&#xfa;" horiz-adv-x="558" 
d="M53 537h68v-285q0 -104 33.5 -152.5t119.5 -48.5q95 0 138 73q11 18 16 43.5t6 45.5t1 60v264h69v-537h-69v58q-60 -72 -163 -72q-121 0 -170 65.5t-49 205.5v280zM260 609h-45l102 171h74z" />
    <glyph glyph-name="ucircumflex" unicode="&#xfb;" horiz-adv-x="558" 
d="M53 537h68v-285q0 -104 33.5 -152.5t119.5 -48.5q95 0 138 73q11 18 16 43.5t6 45.5t1 60v264h69v-537h-69v58q-60 -72 -163 -72q-121 0 -170 65.5t-49 205.5v280zM141 609l98 171h74l98 -171h-45l-90 129l-90 -129h-45z" />
    <glyph glyph-name="udieresis" unicode="&#xfc;" horiz-adv-x="558" 
d="M53 537h68v-285q0 -104 33.5 -152.5t119.5 -48.5q95 0 138 73q11 18 16 43.5t6 45.5t1 60v264h69v-537h-69v58q-60 -72 -163 -72q-121 0 -170 65.5t-49 205.5v280zM151 641v80h69v-80h-69zM331 641v80h70v-80h-70z" />
    <glyph glyph-name="yacute" unicode="&#xfd;" horiz-adv-x="461" 
d="M-16 537h79l166 -436l174 436h80l-290 -711h-74l72 175zM215 609h-45l102 171h74z" />
    <glyph glyph-name="thorn" unicode="&#xfe;" horiz-adv-x="630" 
d="M123 85v-117v-142h-70v885h70l-2 -262q29 45 83.5 72.5t116.5 27.5q121 0 201 -81t80 -195q0 -124 -78 -205.5t-198 -81.5q-135 0 -203 99zM322 485q-80 0 -140.5 -64t-60.5 -152q0 -90 61.5 -154.5t141.5 -64.5q83 0 144.5 61t61.5 152q0 97 -61.5 159.5t-146.5 62.5z
" />
    <glyph glyph-name="ydieresis" unicode="&#xff;" horiz-adv-x="461" 
d="M-16 537h79l166 -436l174 436h80l-290 -711h-74l72 175zM106 641v80h69v-80h-69zM286 641v80h70v-80h-70z" />
    <glyph glyph-name="dotlessi" unicode="&#x131;" horiz-adv-x="181" 
d="M56 0v537h69v-537h-69z" />
    <glyph glyph-name="Lslash" unicode="&#x141;" horiz-adv-x="419" 
d="M393 0h-320v281l-73 -52v70l73 51v361h70v-313l125 87v-71l-125 -86v-259h250v-69z" />
    <glyph glyph-name="lslash" unicode="&#x142;" horiz-adv-x="190" 
d="M65 0v315l-65 -45v68l65 46v327h69v-282l65 46v-69l-65 -45v-361h-69z" />
    <glyph glyph-name="OE" unicode="&#x152;" horiz-adv-x="1090" 
d="M103 359q0 -131 85 -218.5t208 -87.5q121 0 204.5 88.5t83.5 219.5q0 120 -85.5 208t-207.5 88q-101 0 -179 -66q-50 -43 -79.5 -105t-29.5 -127zM680 127q-118 -141 -289 -141q-153 0 -257 107.5t-104 266.5q0 153 111 262q105 103 251 103q183 0 288 -142v128h369v-70
h-299v-249h299v-70h-299v-253h299v-69h-369v127z" />
    <glyph glyph-name="oe" unicode="&#x153;" horiz-adv-x="1088" 
d="M98 269q0 -93 59 -155.5t147 -62.5q86 0 145 62.5t59 156.5q0 96 -60 157t-150 61q-80 0 -140 -62t-60 -157zM988 305q-18 87 -71 135t-131 48q-80 0 -137 -50.5t-67 -132.5h406zM1062 245h-482q7 -87 64.5 -140.5t140.5 -53.5q60 0 108 30.5t75 86.5h77
q-36 -88 -104 -135.5t-159 -47.5q-157 0 -238 146q-77 -146 -240 -146q-119 0 -198.5 83.5t-79.5 199.5q0 120 81.5 202.5t198.5 82.5q76 0 138.5 -38t99.5 -108q40 70 104.5 108t139.5 38q119 0 196.5 -84t77.5 -222v-2z" />
    <glyph glyph-name="Scaron" unicode="&#x160;" horiz-adv-x="465" 
d="M28 203h68q1 -66 37 -105t93 -39q63 0 99 39t36 105q0 35 -8.5 58.5t-35 41t-42.5 24t-64 22.5q-11 4 -17 6q-77 26 -112 67t-35 109q0 84 52.5 138.5t137.5 54.5q79 0 126.5 -49t52.5 -139h-66q-5 58 -34.5 89.5t-78.5 31.5q-53 0 -86.5 -34.5t-33.5 -87.5t42 -85
q15 -11 36.5 -19.5t54 -19t51.5 -17.5q68 -27 99 -68.5t31 -109.5q0 -103 -56 -166.5t-150 -63.5q-86 0 -141 60t-56 157zM98 951h45l90 -128l90 128h45l-98 -170h-74z" />
    <glyph glyph-name="scaron" unicode="&#x161;" horiz-adv-x="389" 
d="M21 169h71v-2q0 -51 29 -83.5t71 -32.5q40 0 67 25t27 64q0 41 -23 64t-75 42q-76 27 -110 57t-34 97q0 63 45.5 107t110.5 44q69 0 109.5 -39t43.5 -109h-74q-2 39 -24 59.5t-59 20.5q-34 0 -56.5 -23t-22.5 -56q0 -46 40 -70q19 -12 57.5 -23.5t49.5 -16.5
q98 -42 98 -148q0 -69 -48.5 -114.5t-122.5 -45.5q-75 0 -121.5 49t-48.5 134zM60 780h45l90 -128l90 128h45l-98 -170h-74z" />
    <glyph glyph-name="Ydieresis" unicode="&#x178;" horiz-adv-x="479" 
d="M272 261v-261h-69v262l-227 449h80l182 -369l184 369h78zM115 812v80h69v-80h-69zM295 812v80h70v-80h-70z" />
    <glyph glyph-name="Zcaron" unicode="&#x17d;" horiz-adv-x="458" 
d="M351 641h-312v70h393v-67l-333 -575h340v-69h-420v67zM94 951h45l90 -128l90 128h45l-98 -170h-74z" />
    <glyph glyph-name="zcaron" unicode="&#x17e;" horiz-adv-x="403" 
d="M381 0h-371v65l280 407h-249v65h325v-74l-274 -394h289v-69zM67 780h45l90 -128l90 128h45l-98 -170h-74z" />
    <glyph glyph-name="florin" unicode="&#x192;" horiz-adv-x="565" 
d="M284 -23q-9 -99 -51 -140.5t-142 -41.5h-15l5 65h20q62 0 85.5 21t28.5 79l36 407h-125l5 65h125l10 110q4 51 12.5 82t28.5 55t54.5 33.5t89.5 9.5h24l-5 -63q-6 0 -13.5 0.5t-9.5 0.5q-67 0 -86.5 -22t-25.5 -90l-11 -116h126l-6 -65h-125z" />
    <glyph glyph-name="circumflex" unicode="&#x2c6;" 
d="M115 609l98 171h74l98 -171h-45l-90 129l-90 -129h-45z" />
    <glyph glyph-name="caron" unicode="&#x2c7;" 
d="M115 780h45l90 -128l90 128h45l-98 -170h-74z" />
    <glyph glyph-name="breve" unicode="&#x2d8;" 
d="M116 759h39q3 -37 26 -54t69 -17t68.5 16.5t25.5 54.5h40q-4 -67 -36.5 -97.5t-97.5 -30.5t-97.5 30.5t-36.5 97.5z" />
    <glyph glyph-name="dotaccent" unicode="&#x2d9;" 
d="M213 644v86h74v-86h-74z" />
    <glyph glyph-name="ring" unicode="&#x2da;" 
d="M133 718q0 49 34 83t83 34t83.5 -34t34.5 -83t-34.5 -83.5t-83.5 -34.5t-83 34.5t-34 83.5zM177 717q0 -31 21 -52t52 -21q30 0 51.5 21t21.5 52t-21.5 52.5t-51.5 21.5q-31 0 -52 -21.5t-21 -52.5z" />
    <glyph glyph-name="ogonek" unicode="&#x2db;" 
d="M283 0q-71 -62 -71 -115q0 -23 12 -32.5t41 -9.5h37v-51h-36q-102 0 -102 79q0 61 89 129h30z" />
    <glyph glyph-name="tilde" unicode="&#x2dc;" 
d="M391 732q-25 -90 -93 -90q-14 0 -32 5l-47 15q-14 4 -26 4q-30 0 -45 -36h-39q21 90 95 90q15 0 26 -4l47 -15q14 -5 27 -5q31 0 47 36h40z" />
    <glyph glyph-name="hungarumlaut" unicode="&#x2dd;" 
d="M164 609l73 171h65l-102 -171h-36zM279 609l82 171h65l-111 -171h-36z" />
    <glyph glyph-name="endash" unicode="&#x2013;" 
d="M500 295v-55h-500v55h500z" />
    <glyph glyph-name="emdash" unicode="&#x2014;" horiz-adv-x="1000" 
d="M0 240v55h1000v-55h-1000z" />
    <glyph glyph-name="quoteleft" unicode="&#x2018;" horiz-adv-x="194" 
d="M183 502h-70l-75 209h69z" />
    <glyph glyph-name="quoteright" unicode="&#x2019;" horiz-adv-x="194" 
d="M81 502h-69l75 209h70z" />
    <glyph glyph-name="quotesinglbase" unicode="&#x201a;" horiz-adv-x="194" 
d="M81 -79h-69l75 209h70z" />
    <glyph glyph-name="quotedblleft" unicode="&#x201c;" horiz-adv-x="338" 
d="M113 502l-75 209h69l76 -209h-70zM257 502l-76 209h70l75 -209h-69z" />
    <glyph glyph-name="quotedblright" unicode="&#x201d;" horiz-adv-x="338" 
d="M81 502h-69l75 209h70zM225 502h-70l76 209h69z" />
    <glyph glyph-name="quotedblbase" unicode="&#x201e;" horiz-adv-x="338" 
d="M81 -79h-69l75 209h70zM225 -79h-70l76 209h69z" />
    <glyph glyph-name="dagger" unicode="&#x2020;" 
d="M214 -113v558h-178v62h178v204h71v-204h179v-62h-179v-558h-71z" />
    <glyph glyph-name="daggerdbl" unicode="&#x2021;" 
d="M212 -113v204h-178v62h178v292h-178v62h178v204h71v-204h183v-62h-183v-292h183v-62h-183v-204h-71z" />
    <glyph glyph-name="bullet" unicode="&#x2022;" horiz-adv-x="590" 
d="M150 372q0 60 42.5 102t102.5 42q59 0 101.5 -42t42.5 -102q0 -59 -42.5 -102t-102.5 -43t-102 42.5t-42 102.5z" />
    <glyph glyph-name="ellipsis" unicode="&#x2026;" horiz-adv-x="1000" 
d="M202 0h-70v130h70v-130zM535 0h-70v130h70v-130zM869 0h-70v130h70v-130z" />
    <glyph glyph-name="perthousand" unicode="&#x2030;" horiz-adv-x="1315" 
d="M482 161q0 73 51 124t124 51t124 -51t51 -124t-51 -124t-124 -51t-124 51t-51 124zM545 161q0 -47 32.5 -79t78.5 -32t78.5 32.5t32.5 78.5t-32.5 78t-78.5 32t-78.5 -32t-32.5 -78zM601 725h56l-379 -739h-57zM922 161q0 73 51 124t124 51t124 -51t51 -124t-51 -124
t-124 -51t-124 51t-51 124zM984 160q0 -46 32.5 -78t78.5 -32t78.5 32t32.5 78t-32.5 78.5t-78.5 32.5t-78.5 -32.5t-32.5 -78.5zM44 550q0 73 51.5 124t124.5 51t124 -51t51 -124q0 -74 -50.5 -124.5t-124.5 -50.5t-125 51t-51 124zM107 548q0 -47 32 -79t78 -32t78.5 32.5
t32.5 78.5t-32.5 78.5t-78.5 32.5t-78 -32.5t-32 -78.5z" />
    <glyph glyph-name="guilsinglleft" unicode="&#x2039;" horiz-adv-x="308" 
d="M176 112l-120 156l120 157h67l-121 -157l121 -156h-67z" />
    <glyph glyph-name="guilsinglright" unicode="&#x203a;" horiz-adv-x="308" 
d="M132 112h-67l121 156l-121 157h67l120 -157z" />
    <glyph glyph-name="fraction" unicode="&#x2044;" horiz-adv-x="167" 
d="M-108 -14h-59l442 739h58z" />
    <glyph glyph-name="trademark" unicode="&#x2122;" horiz-adv-x="833" 
d="M339 710v-28h-84v-231h-40v231h-86v28h210zM458 710l81 -206l76 206h57v-259h-35v228l-86 -228h-24l-91 228v-228h-35v259h57z" />
    <glyph glyph-name="minus" unicode="&#x2212;" horiz-adv-x="833" 
d="M709 322v-48h-585v48h585z" />
    <glyph glyph-name="fi" unicode="&#xfb01;" horiz-adv-x="465" 
d="M398 600h-69v111h69v-111zM151 0h-67v477h-72v60h69v15q0 85 43 126t132 41h6v-62q-62 -1 -87 -24.5t-25 -80.5v-15h112v-60h-111v-477zM329 0v537h69v-537h-69z" />
    <glyph glyph-name="fl" unicode="&#xfb02;" horiz-adv-x="465" 
d="M151 0h-67v477h-72v60h69v15q0 85 43 126t133 41h5v-62q-62 -1 -87 -24.5t-25 -80.5v-15h112v-60h-111v-477zM329 0v711h69v-711h-69z" />
    </font>
</defs>
</svg>
